<?xml version="1.0" encoding="UTF-8" standalone="no"?>
<!-- Created with Inkscape (http://www.inkscape.org/) -->

<svg
   xmlns:osb="http://www.openswatchbook.org/uri/2009/osb"
   xmlns:dc="http://purl.org/dc/elements/1.1/"
   xmlns:cc="http://creativecommons.org/ns#"
   xmlns:rdf="http://www.w3.org/1999/02/22-rdf-syntax-ns#"
   xmlns:svg="http://www.w3.org/2000/svg"
   xmlns="http://www.w3.org/2000/svg"
   xmlns:xlink="http://www.w3.org/1999/xlink"
   xmlns:sodipodi="http://sodipodi.sourceforge.net/DTD/sodipodi-0.dtd"
   xmlns:inkscape="http://www.inkscape.org/namespaces/inkscape"
   id="svg2"
   version="1.1"
   inkscape:version="0.91 r13725"
   width="145"
   height="30"
   viewBox="0 0 145 30"
   sodipodi:docname="logo2.svg"
   inkscape:export-filename="/home/nicolas/dev/projetos/after-midnight/kart/workspace/kartwiki/src/main/webapp/resources/imagens/logo.png"
   inkscape:export-xdpi="90"
   inkscape:export-ydpi="90">
  <metadata
     id="metadata8">
    <rdf:RDF>
      <cc:Work
         rdf:about="">
        <dc:format>image/svg+xml</dc:format>
        <dc:type
           rdf:resource="http://purl.org/dc/dcmitype/StillImage" />
        <dc:title />
      </cc:Work>
    </rdf:RDF>
  </metadata>
  <defs
     id="defs6">
    <linearGradient
       id="linearGradient4183"
       osb:paint="solid">
      <stop
         style="stop-color:#ffffff;stop-opacity:1;"
         offset="0"
         id="stop4185" />
    </linearGradient>
    <linearGradient
       id="linearGradient4177"
       osb:paint="solid">
      <stop
         style="stop-color:#000000;stop-opacity:1;"
         offset="0"
         id="stop4179" />
    </linearGradient>
    <linearGradient
       inkscape:collect="always"
       xlink:href="#linearGradient4183"
       id="linearGradient4187"
       x1="118.41553"
       y1="21.312149"
       x2="141.94467"
       y2="21.312149"
       gradientUnits="userSpaceOnUse"
       gradientTransform="matrix(1.4237318,0,0,1.461446,-167.20035,-12.023121)" />
  </defs>
  <sodipodi:namedview
     pagecolor="#ffffff"
     bordercolor="#666666"
     borderopacity="1"
     objecttolerance="10"
     gridtolerance="10"
     guidetolerance="10"
     inkscape:pageopacity="0"
     inkscape:pageshadow="2"
     inkscape:window-width="1920"
     inkscape:window-height="1014"
     id="namedview4"
     showgrid="false"
     inkscape:snap-text-baseline="false"
     inkscape:zoom="3.1034483"
     inkscape:cx="-47.205556"
     inkscape:cy="15"
     inkscape:window-x="0"
     inkscape:window-y="0"
     inkscape:window-maximized="1"
     inkscape:current-layer="svg2" />
  <text
     xml:space="preserve"
     style="font-style:normal;font-variant:normal;font-weight:normal;font-stretch:normal;font-size:35.93214417px;line-height:125%;font-family:'Courier 10 Pitch';-inkscape-font-specification:'Courier 10 Pitch';letter-spacing:0px;word-spacing:0px;fill:#ffffff;fill-opacity:1;stroke:none;stroke-width:1px;stroke-linecap:butt;stroke-linejoin:miter;stroke-opacity:1;"
     x="36.093353"
     y="22.064825"
     id="text3338"
     sodipodi:linespacing="125%"
     transform="scale(1.0078713,0.99219018)"
     inkscape:export-xdpi="90"
     inkscape:export-ydpi="90"><tspan
       sodipodi:role="line"
       id="tspan3340"
       x="36.093353"
       y="22.064825"
       style="font-style:normal;font-variant:normal;font-weight:bold;font-stretch:normal;font-size:23.35589409px;font-family:'Courier 10 Pitch';-inkscape-font-specification:'Courier 10 Pitch Bold';baseline-shift:sub;fill:#ffffff;fill-opacity:1;">KartWiki</tspan></text>
  <path
     style="fill:none;stroke:url(#linearGradient4187);stroke-width:1.44246566;stroke-opacity:1"
     d="M 6.3478264,28.411427 C 5.5947396,28.116245 5.0015032,27.486331 4.6097928,26.565923 L 4.358664,25.97581 l -0.7012684,0 c -0.3856992,0 -0.8945792,-0.100838 -1.1308463,-0.224096 -0.3755434,-0.195901 -0.4285834,-0.287618 -0.4215776,-0.728962 0.00718,-0.424724 0.025388,-0.457633 0.1171215,-0.207312 0.1820055,0.495805 0.6339415,0.74382 1.3553892,0.74382 0.5472618,0 0.6681796,-0.0435 0.6754608,-0.242988 0.00718,-0.207779 0.02467,-0.202751 0.1174808,0.03471 0.1084992,0.277699 0.1084992,0.277699 0.1258638,0 0.00959,-0.165687 0.081674,-0.05368 0.1771075,0.277699 0.4384872,1.524146 1.2539671,2.376337 2.5141136,2.627281 1.1889635,0.236767 2.7810863,-0.84552 3.1306541,-2.12813 l 0.154965,-0.568576 7.432105,0 7.432106,0 0,-0.633798 c 0,-0.830269 0.453025,-2.004353 0.773385,-2.004353 0.298972,0 0.296684,0.05464 -0.03365,0.80465 -0.772547,1.754366 0.116882,3.84917 1.874293,4.414683 1.414069,0.455013 2.803217,-0.319241 3.447768,-1.921644 l 0.265296,-0.659538 0.867011,0 c 0.813097,0 0.887358,-0.02657 1.194017,-0.427204 0.291918,-0.381381 0.326983,-0.545883 0.326983,-1.533662 0,-0.989623 -0.0327,-1.142446 -0.310026,-1.447271 -0.18634,-0.204848 -0.455863,-0.340815 -0.675592,-0.340815 -0.285618,0 -0.584625,-0.235348 -1.367173,-1.076087 -1.395518,-1.499303 -3.669869,-2.894639 -6.551838,-4.019619 -0.812784,-0.317275 -1.009017,-0.481203 -2.431409,-2.031118 -0.850975,-0.92729 -1.54725,-1.774997 -1.54725,-1.88379 0,-0.108789 0.312612,-0.558091 0.694693,-0.998439 0.38207,-0.440348 0.694683,-0.920552 0.694683,-1.067121 0,-0.332808 -0.38243,-0.726078 -0.706071,-0.726078 -0.343688,0 -4.346204,4.425069 -4.346204,4.805051 0,0.342132 0.370694,0.74895 0.682443,0.74895 0.1213,0 0.548196,-0.343654 0.94878,-0.763676 0.400561,-0.420021 0.809349,-0.763673 0.908387,-0.763673 0.298061,0 3.064717,3.136826 2.980204,3.378938 -0.09173,0.262712 -0.963294,0.694379 -2.362143,1.169866 -1.013844,0.344624 -1.221261,0.36504 -3.726046,0.366742 -2.346383,0.0017 -2.769027,-0.03347 -3.662899,-0.303885 -1.185191,-0.358552 -2.833575,-1.222797 -3.5050117,-1.837676 -0.4124284,-0.37769 -0.473648,-0.510757 -0.473648,-1.029519 0,-1.538383 -0.6075472,-3.328561 -1.4553247,-4.288166 -0.561946,-0.636081 -1.1644275,-0.698415 -1.6449373,-0.170188 -0.4319845,0.474885 -0.3889561,0.88234 0.192592,1.824312 0.5304001,0.859092 0.8125218,1.885672 0.7405363,2.694626 l -0.043232,0.485975 -1.2223754,0.06956 c -1.3123963,0.07467 -1.6383127,0.227903 -2.1801017,1.025003 -0.229118,0.337078 -0.2656437,0.623984 -0.303834,2.386584 -0.038322,1.766539 -0.06862,2.003446 -0.2560866,2.003446 -0.2985283,0 -0.7717688,0.390481 -0.9014768,0.74382 -0.097002,0.264123 -0.1100559,0.249272 -0.1171215,-0.132187 -0.00838,-0.459327 0.2689484,-0.827594 0.686682,-0.911264 0.2346982,-0.04701 0.2570807,-0.188283 0.3157732,-1.992947 0.035329,-1.086591 0.1275643,-2.064698 0.2094296,-2.220048 0.4592295,-0.871747 1.3291505,-1.319078 2.5652501,-1.319078 l 0.8882078,0 -0.0012,-0.590112 c -0.0012,-0.624115 -0.4518616,-1.85293 -0.7932027,-2.163288 -0.344299,-0.313069 -0.5079699,-1.06861 -0.3473649,-1.603591 0.1948075,-0.648911 0.532508,-0.941664 1.1682577,-1.012771 0.7172322,-0.08022 1.180042,0.247816 1.8013008,1.276738 0.610732,1.011452 0.9509952,2.202973 0.9509952,3.330047 0,0.850889 0.014845,0.891154 0.4736476,1.281712 0.736477,0.626966 1.30981,0.975065 2.23974,1.35985 1.497779,0.619747 2.510557,0.800386 4.549262,0.811403 2.165216,0.01169 3.469003,-0.228265 4.970985,-0.914928 L 22.711911,17.328883 21.378665,15.863242 20.04542,14.3976 19.358055,15.112242 c -0.797612,0.829258 -1.166342,0.975871 -1.696418,0.67453 -0.422728,-0.240303 -0.534149,-0.468033 -0.534149,-1.091707 0,-0.367455 0.289259,-0.746311 2.052501,-2.688329 1.368143,-1.506869 2.175899,-2.2934914 2.422645,-2.3592603 0.458175,-0.1221181 0.957258,0.159621 1.178401,0.6652283 0.220315,0.503758 0.03078,0.994935 -0.700466,1.815078 l -0.590039,0.661797 1.449804,1.592842 1.449793,1.592843 1.452535,0.606417 c 2.958864,1.235304 5.043089,2.575401 6.296709,4.048618 0.592649,0.696447 0.848843,0.902316 1.122954,0.902316 0.195346,0 0.481467,0.09727 0.635869,0.216147 0.262434,0.202074 0.280721,0.320223 0.280721,1.814181 0,0.878916 -0.05569,1.712315 -0.123577,1.851996 -0.162976,0.334765 -0.780295,0.560878 -1.531287,0.560878 -0.592158,0 -0.612529,0.01417 -0.845742,0.590112 -0.265846,0.656493 -0.900973,1.402171 -1.477995,1.735242 -0.208412,0.120292 -0.779073,0.247268 -1.268146,0.282151 -0.7271,0.05187 -1.009006,0.0067 -1.546208,-0.247264 -0.745219,-0.352425 -1.437985,-1.118045 -1.681497,-1.858346 l -0.165096,-0.501895 -7.40134,0 -7.401352,0 -0.16288,0.495163 c -0.548999,1.669016 -2.5611304,2.592956 -4.2258608,1.940453 z m 0.7241178,-2.016299 c -0.1467013,-0.06517 -0.3882735,-0.28832 -0.5368071,-0.4959 -0.8150607,-1.139078 0.4286673,-2.755419 1.6054512,-2.086445 0.4797435,0.272722 0.6506238,0.603778 0.6506238,1.260501 0,0.682744 -0.191527,1.027488 -0.7007895,1.261407 -0.4812525,0.221046 -0.6361809,0.230239 -1.0184784,0.06044 z m 1.156641,-0.621282 c 0.1704966,-0.187448 0.3100131,-0.5027 0.3100131,-0.700562 0,-0.452396 -0.5228796,-1.041376 -0.9245176,-1.041376 -0.8750826,0 -1.3067917,1.216024 -0.6372708,1.794974 0.4414688,0.381751 0.8728914,0.363471 1.2517753,-0.05303 z m 19.9290958,0.560367 c -0.484786,-0.238369 -0.673054,-0.591089 -0.673054,-1.260929 0,-0.656723 0.170868,-0.987779 0.650611,-1.260501 1.238004,-0.703777 2.464762,1.031135 1.528161,2.161182 -0.414261,0.499837 -0.957511,0.629809 -1.505718,0.360248 z m 1.141348,-0.507331 c 0.669533,-0.57895 0.2378,-1.794974 -0.637282,-1.794974 -0.401627,0 -0.924506,0.58898 -0.924506,1.041376 0,0.452398 0.522879,1.041376 0.924506,1.041376 0.167479,0 0.454247,-0.129499 0.637282,-0.287778 z"
     id="path3375"
     inkscape:connector-curvature="0"
     inkscape:export-xdpi="90"
     inkscape:export-ydpi="90" />
</svg>
